<?xml version="1.0" encoding="utf-8"?>
<svg xmlns="http://www.w3.org/2000/svg" xmlns:svg="http://www.w3.org/2000/svg" version="1.1" viewBox="0 0 1400 440">
	<title>The titlepage for the Standard Ebooks edition of The Adventures of Tom Sawyer, by Mark Twain</title>
	<g aria-label="THE ADVENTURES">
		<path d="m 242.71856,68.245613 h 18.33918 V 130 h 17.59064 V 68.245613 h 18.33919 V 52.807016 h -54.26901 z"/>
		<path d="m 325.913,99.029239 h 24.88889 V 130 h 17.59065 V 52.807016 H 350.80189 V 83.590642 H 325.913 V 52.807016 H 308.32236 V 130 H 325.913 Z"/>
		<path d="M 428.75804,52.807016 H 384.5943 V 130 h 44.16374 v -15.4386 h -26.5731 V 99.029239 h 25.45029 V 83.590642 H 402.18494 V 68.245613 h 26.5731 z"/>
		<path d="m 513.66009,52.807016 h -16.2807 L 466.22149,130 h 18.90059 l 5.7076,-15.4386 H 520.2098 L 525.9174,130 h 18.90058 z m 0.5614,46.31579 h -17.40351 l 8.60819,-22.45614 h 0.18714 z"/>
		<path d="M 552.73756,52.807016 V 130 h 22.36257 c 21.23977,0 38.92398,-16.09357 38.92398,-38.643276 0,-22.45614 -17.77778,-38.549708 -38.92398,-38.549708 z M 570.3282,114.2807 V 68.526315 h 2.71345 c 13.09942,0 21.98831,10.011696 21.98831,22.923977 -0.0936,12.912278 -8.98246,22.830408 -21.98831,22.830408 z"/>
		<path d="m 642.91594,130 h 13.84795 L 689.13816,52.807016 H 669.3019 L 649.83991,103.52047 630.37792,52.807016 h -19.83625 z"/>
		<path d="M 741.22149,52.807016 H 697.05775 V 130 h 44.16374 v -15.4386 h -26.5731 V 99.029239 h 25.4503 V 83.590642 h -25.4503 V 68.245613 h 26.5731 z"/>
		<path d="m 773.9247,82.093566 h 0.18714 L 804.80189,130 h 17.59065 V 52.807016 h -17.59065 v 47.906434 h -0.18713 L 773.9247,52.807016 H 756.33406 V 130 h 17.59064 z"/>
		<path d="m 829.20251,68.245613 h 18.33918 V 130 h 17.59064 V 68.245613 h 18.33918 V 52.807016 h -54.269 z"/>
		<path d="m 954.12792,52.807016 h -17.59064 v 44.63158 c 0,12.912284 -3.92982,16.654974 -12.53801,16.654974 -8.60819,0 -12.53801,-3.74269 -12.53801,-16.654974 v -44.63158 h -17.59065 v 49.777774 c 0,19.08772 10.47954,28.81872 30.12866,28.81872 19.64912,0 30.12865,-9.731 30.12865,-28.81872 z"/>
		<path d="M 969.43348,52.807016 V 130 h 17.59065 V 99.497075 L 1010.6031,130 h 22.3625 l -26.5731,-31.906433 c 9.4503,-2.994152 15.8129,-10.760234 15.8129,-22.362574 0,-15.157895 -10.8538,-22.923977 -25.16958,-22.923977 z m 17.59065,34.245615 V 66.842104 h 2.05848 c 6.64327,0 14.59649,0.467836 14.59649,10.105263 0,9.637428 -7.95322,10.105264 -14.59649,10.105264 z"/>
		<path d="m 1085.666,52.807016 h -44.1638 V 130 h 44.1638 v -15.4386 h -26.5731 V 99.029239 h 25.4502 V 83.590642 h -25.4502 V 68.245613 h 26.5731 z"/>
		<path d="m 1129.223,51.403507 c -12.4445,0 -25.1696,9.169591 -25.1696,23.578948 0,8.046784 5.4269,15.251462 14.69,19.836258 9.1696,4.584795 17.4035,7.111107 17.4035,12.725147 0,7.20468 -7.2982,7.57895 -11.1345,7.57895 -8.6082,0 -18.9006,-8.70176 -18.9006,-8.70176 l -8.7953,14.78363 c 0,0 10.9474,10.19883 29.0059,10.19883 15.0643,0 29.0994,-6.45614 29.0994,-24.88889 0,-10.105264 -9.4503,-17.40351 -18.0585,-21.052632 -8.7953,-3.742691 -16.0936,-6.83041 -16.0936,-11.134504 0,-4.210526 3.1813,-6.923976 9.1696,-6.923976 7.9533,0 15.6258,5.333333 15.6258,5.333333 l 7.1111,-14.035088 c 0,0 -9.9182,-7.298246 -23.9532,-7.298246 z"/>
	</g>
	<g aria-label="OF TOM SAWYER">
		<path d="m 258.9576,191.35672 c 0,22.54971 16.09356,40.04679 38.92397,40.04679 22.17544,0 38.83041,-17.49708 38.83041,-40.04679 0,-22.5497 -17.40351,-39.95321 -38.83041,-39.95321 -21.23976,0 -38.92397,17.40351 -38.92397,39.95321 z m 18.99415,0 c 0,-11.50877 6.36257,-23.01754 19.92982,-23.01754 13.66082,0 19.83626,11.50877 19.83626,23.01754 0,11.50878 -5.80117,23.01755 -19.83626,23.01755 -14.40935,0 -19.92982,-11.50877 -19.92982,-23.01755 z"/>
		<path d="M 394.10526,152.80702 H 349.47368 V 230 h 17.59064 v -30.97076 h 24.98246 v -15.4386 h -24.98246 v -15.34503 h 27.04094 z"/>
		<path d="m 428.62135,168.24561 h 18.33918 V 230 h 17.59064 v -61.75439 h 18.33918 v -15.43859 h -54.269 z"/>
		<path d="m 487.83917,191.35672 c 0,22.54971 16.09357,40.04679 38.92398,40.04679 22.17544,0 38.83041,-17.49708 38.83041,-40.04679 0,-22.5497 -17.40351,-39.95321 -38.83041,-39.95321 -21.23977,0 -38.92398,17.40351 -38.92398,39.95321 z m 18.99415,0 c 0,-11.50877 6.36258,-23.01754 19.92983,-23.01754 13.66082,0 19.83626,11.50877 19.83626,23.01754 0,11.50878 -5.80117,23.01755 -19.83626,23.01755 -14.40936,0 -19.92983,-11.50877 -19.92983,-23.01755 z"/>
		<path d="m 642.16812,230 h 17.59064 l -6.92397,-77.19298 h -18.71345 l -17.12281,44.53801 -17.12281,-44.53801 H 581.16227 L 574.23829,230 h 17.59065 l 3.64912,-45.75439 h 0.46784 l 15.81286,45.28655 h 10.47953 l 15.81287,-45.28655 h 0.46784 z"/>
		<path d="m 729.00731,151.40351 c -12.44445,0 -25.16959,9.16959 -25.16959,23.57895 0,8.04678 5.4269,15.25146 14.69006,19.83625 9.16959,4.5848 17.40351,7.11111 17.40351,12.72515 0,7.20468 -7.29825,7.57895 -11.13451,7.57895 -8.60819,0 -18.90058,-8.70176 -18.90058,-8.70176 l -8.79532,14.78363 c 0,0 10.94736,10.19883 29.00584,10.19883 15.06433,0 29.09942,-6.45614 29.09942,-24.88889 0,-10.10526 -9.45029,-17.40351 -18.05848,-21.05263 -8.79532,-3.74269 -16.09357,-6.83041 -16.09357,-11.13451 0,-4.21052 3.18129,-6.92397 9.16959,-6.92397 7.95322,0 15.62573,5.33333 15.62573,5.33333 l 7.11112,-14.03509 c 0,0 -9.91813,-7.29824 -23.95322,-7.29824 z"/>
		<path d="m 807.63305,152.80702 h -16.2807 L 760.19445,230 h 18.90059 l 5.7076,-15.4386 h 29.38012 L 819.89036,230 h 18.90059 z m 0.56141,46.31579 h -17.40351 l 8.60818,-22.45614 h 0.18714 z"/>
		<path d="m 897.89765,230 h 19.46199 l 21.98831,-77.19298 h -19.46199 l -13.19298,52.95906 h -0.46784 L 892.19005,152.80702 H 878.9035 l -14.03509,52.95906 h -0.46783 L 851.2076,152.80702 H 831.65204 L 853.64034,230 h 19.55556 l 12.35088,-43.32164 z"/>
		<path d="m 940.14617,152.80702 28.44445,42.5731 V 230 h 17.59064 v -34.61988 l 28.44444,-42.5731 h -21.14619 l -16.09357,24.70175 -16.09357,-24.70175 z"/>
		<path d="m 1066.6272,152.80702 h -44.1637 V 230 h 44.1637 v -15.4386 h -26.5731 v -15.53216 h 25.4503 v -15.4386 h -25.4503 v -15.34503 h 26.5731 z"/>
		<path d="M 1081.7398,152.80702 V 230 h 17.5906 V 199.49708 L 1122.9094,230 h 22.3625 l -26.5731,-31.90643 c 9.4503,-2.99416 15.8129,-10.76024 15.8129,-22.36258 0,-15.15789 -10.8538,-22.92397 -25.1696,-22.92397 z m 17.5906,34.24561 V 166.8421 h 2.0585 c 6.6433,0 14.5965,0.46784 14.5965,10.10527 0,9.63742 -7.9532,10.10526 -14.5965,10.10526 z"/>
	</g>
	<g aria-label="MARK TWAIN">
		<path d="m 483.95614,390 h 13.19298 l -5.19298,-57.89474 h -14.03509 l -12.8421,33.40351 -12.84211,-33.40351 H 438.20176 L 433.00877,390 h 13.19299 l 2.73684,-34.31579 h 0.35088 l 11.85964,33.96491 h 7.85965 l 11.85965,-33.96491 h 0.35088 z"/>
		<path d="M 536.83772,332.10526 H 524.62719 L 501.25877,390 h 14.17544 l 4.2807,-11.57895 H 541.75 L 546.0307,390 h 14.17544 z m 0.42105,34.73685 H 524.20614 L 530.66228,350 h 0.14035 z"/>
		<path d="M 567.39584,332.10526 V 390 h 13.19298 V 367.12281 L 598.27303,390 h 16.77193 l -19.92982,-23.92982 c 7.08772,-2.24562 11.85965,-8.07018 11.85965,-16.77193 0,-11.36842 -8.14035,-17.19299 -18.8772,-17.19299 z m 13.19298,25.68421 v -15.15789 h 1.54386 c 4.98246,0 10.94737,0.35088 10.94737,7.57895 0,7.22807 -5.96491,7.57894 -10.94737,7.57894 z"/>
		<path d="M 675.39912,390 648.45176,359.54386 671.75,332.10526 h -16 l -19.85965,23.64913 V 332.10526 H 622.69737 V 390 h 13.19298 V 365.4386 L 657.22368,390 Z"/>
		<path d="m 700.04603,343.68421 h 13.75439 V 390 h 13.19298 v -46.31579 h 13.75439 v -11.57895 h -40.70176 z"/>
		<path d="m 794.91995,390 h 14.59649 l 16.49123,-57.89474 h -14.59649 l -9.89474,39.7193 h -0.35088 l -10.52631,-39.7193 h -9.96491 l -10.52632,39.7193 h -0.35088 l -9.89473,-39.7193 H 745.23574 L 761.72697,390 h 14.66666 l 9.26316,-32.49123 z"/>
		<path d="M 857.13376,332.10526 H 844.92323 L 821.55481,390 h 14.17544 l 4.2807,-11.57895 h 22.03509 L 866.32674,390 h 14.17544 z m 0.42105,34.73685 H 844.50218 L 850.95832,350 h 0.14035 z"/>
		<path d="M 900.88487,332.10526 H 887.69189 V 390 h 13.19298 z"/>
		<path d="m 927.54057,354.07018 h 0.14036 L 950.69847,390 h 13.19298 v -57.89474 h -13.19298 v 35.92983 h -0.14035 L 927.54057,332.10526 H 914.34759 V 390 h 13.19298 z"/>
	</g>
</svg>
